<svg width="24" height="25" viewBox="0 0 24 25" fill="none" xmlns="http://www.w3.org/2000/svg">
<path d="M13.5 11.5833H10.5V8.58325H9V11.5833H6V13.0833H9V16.0833H10.5V13.0833H13.5V11.5833Z" fill="#B09357"/>
<path d="M15.75 19.8333H3C2.6023 19.8329 2.221 19.6747 1.93978 19.3935C1.65856 19.1123 1.5004 18.731 1.5 18.3333V6.33325C1.5004 5.93555 1.65856 5.55425 1.93978 5.27303C2.221 4.99181 2.6023 4.83365 3 4.83325H15.75C16.1477 4.83365 16.529 4.99181 16.8102 5.27303C17.0914 5.55425 17.2496 5.93555 17.25 6.33325V9.376L21.3143 6.4735C21.4263 6.39348 21.5583 6.34587 21.6957 6.3359C21.833 6.32592 21.9705 6.35397 22.093 6.41695C22.2155 6.47993 22.3182 6.57543 22.39 6.69296C22.4618 6.81049 22.4999 6.94553 22.5 7.08325V17.5833C22.5 17.721 22.4621 17.8562 22.3903 17.9738C22.3186 18.0915 22.2158 18.1871 22.0933 18.2501C21.9708 18.3132 21.8333 18.3413 21.6959 18.3314C21.5584 18.3214 21.4264 18.2738 21.3143 18.1938L17.25 15.2913V18.3333C17.2496 18.731 17.0914 19.1123 16.8102 19.3935C16.529 19.6747 16.1477 19.8329 15.75 19.8333ZM3 6.33325V18.334L15.75 18.3333V13.8333C15.75 13.6955 15.7879 13.5603 15.8597 13.4427C15.9314 13.325 16.0342 13.2294 16.1567 13.1664C16.2792 13.1033 16.4167 13.0752 16.5541 13.0851C16.6916 13.0951 16.8236 13.1427 16.9357 13.2228L21 16.1253V8.54125L16.9357 11.4438C16.8236 11.5238 16.6916 11.5714 16.5541 11.5814C16.4167 11.5913 16.2792 11.5632 16.1567 11.5001C16.0342 11.4371 15.9314 11.3415 15.8597 11.2238C15.7879 11.1062 15.75 10.971 15.75 10.8333V6.33325H3Z" fill="#B09357"/>
</svg>
