<svg width="14" height="13" viewBox="0 0 14 13" fill="none" xmlns="http://www.w3.org/2000/svg">
<g clip-path="url(#clip0_1_473)">
<path d="M11.9157 12.3333H1.59933C0.940672 12.3333 0.408981 11.8308 0.408981 11.2083V2.20825C0.408981 1.58575 0.940672 1.08325 1.59933 1.08325H11.9157C12.5744 1.08325 13.1061 1.58575 13.1061 2.20825V11.2083C13.1061 11.8308 12.5744 12.3333 11.9157 12.3333ZM1.59933 1.83325C1.37713 1.83325 1.20255 1.99825 1.20255 2.20825V11.2083C1.20255 11.4183 1.37713 11.5833 1.59933 11.5833H11.9157C12.1379 11.5833 12.3125 11.4183 12.3125 11.2083V2.20825C12.3125 1.99825 12.1379 1.83325 11.9157 1.83325H1.59933Z" fill="#68607C"/>
<path d="M3.98004 3.33325C3.75784 3.33325 3.58326 3.16825 3.58326 2.95825V0.708252C3.58326 0.498252 3.75784 0.333252 3.98004 0.333252C4.20224 0.333252 4.37682 0.498252 4.37682 0.708252V2.95825C4.37682 3.16825 4.20224 3.33325 3.98004 3.33325ZM9.53502 3.33325C9.31282 3.33325 9.13824 3.16825 9.13824 2.95825V0.708252C9.13824 0.498252 9.31282 0.333252 9.53502 0.333252C9.75722 0.333252 9.9318 0.498252 9.9318 0.708252V2.95825C9.9318 3.16825 9.75722 3.33325 9.53502 3.33325ZM12.7093 4.83325H0.805766C0.583566 4.83325 0.408981 4.66825 0.408981 4.45825C0.408981 4.24825 0.583566 4.08325 0.805766 4.08325H12.7093C12.9315 4.08325 13.1061 4.24825 13.1061 4.45825C13.1061 4.66825 12.9315 4.83325 12.7093 4.83325Z" fill="#68607C"/>
</g>
<defs>
<clipPath id="clip0_1_473">
<rect width="12.6971" height="12" fill="white" transform="translate(0.408981 0.333252)"/>
</clipPath>
</defs>
</svg>
