<svg width="66" height="15" viewBox="0 0 66 15" fill="none" xmlns="http://www.w3.org/2000/svg">
<path d="M18.028 4.79677V2.52539H18.5492C18.9348 2.52539 19.2065 2.5416 19.3641 2.57443C19.5216 2.60685 19.6597 2.66172 19.7784 2.73819C19.934 2.83877 20.0522 2.96678 20.1327 3.12306C20.2132 3.27933 20.2534 3.4593 20.2534 3.66295C20.2534 3.86661 20.2137 4.04491 20.1337 4.20035C20.0542 4.35621 19.9354 4.48423 19.7784 4.58439C19.6597 4.66087 19.5245 4.71573 19.373 4.74815C19.2214 4.78056 18.9854 4.79677 18.6655 4.79677H18.0275H18.028ZM18.3544 4.54241H18.5601C18.894 4.54241 19.1251 4.53036 19.2537 4.50584C19.3824 4.48132 19.4893 4.43975 19.5747 4.38074C19.686 4.30343 19.7705 4.20326 19.8286 4.08065C19.8868 3.95805 19.9156 3.81757 19.9156 3.65963C19.9156 3.50169 19.8868 3.36038 19.8296 3.23985C19.772 3.11932 19.687 3.01998 19.5747 2.94143C19.4893 2.88158 19.3809 2.83877 19.2493 2.81342C19.1176 2.78807 18.888 2.7756 18.5601 2.7756H18.3544V4.54241Z" fill="#121C4E"/>
<path d="M23.5583 3.66579C23.5583 3.8283 23.5225 3.98125 23.4505 4.12505C23.3789 4.26886 23.2741 4.39645 23.137 4.50826C22.9993 4.62006 22.8413 4.70609 22.6629 4.76677C22.4841 4.82746 22.2987 4.85738 22.1069 4.85738C21.9152 4.85738 21.7303 4.82704 21.5529 4.76677C21.3755 4.70609 21.218 4.62006 21.0804 4.50826C20.9418 4.39562 20.8364 4.2672 20.7639 4.1238C20.6914 3.98 20.6551 3.82746 20.6551 3.6662C20.6551 3.50494 20.6914 3.35033 20.7639 3.20611C20.8364 3.06189 20.9418 2.93346 21.0804 2.82041C21.2165 2.70985 21.3736 2.62465 21.5519 2.56438C21.7303 2.50453 21.9152 2.47461 22.1069 2.47461C22.2987 2.47461 22.4856 2.50453 22.6644 2.56438C22.8433 2.62423 23.0008 2.70985 23.137 2.82041C23.2741 2.93221 23.3789 3.06022 23.4505 3.20444C23.522 3.34867 23.5583 3.50245 23.5583 3.6662V3.66579ZM22.1069 4.6026C22.2555 4.6026 22.3966 4.57891 22.5313 4.53195C22.6654 4.48498 22.7867 4.4164 22.894 4.32663C23.0003 4.23769 23.0813 4.13669 23.137 4.02405C23.1926 3.91142 23.2204 3.79172 23.2204 3.66579C23.2204 3.53985 23.1921 3.41766 23.136 3.30295C23.0798 3.18824 22.9988 3.08682 22.894 2.99871C22.7876 2.90977 22.6674 2.84202 22.5328 2.79547C22.3986 2.74892 22.2565 2.72565 22.1069 2.72565C21.9574 2.72565 21.8128 2.74892 21.6781 2.79547C21.5435 2.84202 21.4237 2.90977 21.3199 2.99871C21.2136 3.08849 21.1326 3.19073 21.0769 3.30419C21.0213 3.41808 20.9934 3.53861 20.9934 3.66579C20.9934 3.79297 21.0208 3.91101 21.0759 4.02239C21.1311 4.1342 21.2126 4.23561 21.3199 4.32663C21.4287 4.41765 21.5499 4.48623 21.6826 4.53278C21.8158 4.57933 21.9569 4.6026 22.1069 4.6026Z" fill="#121C4E"/>
<path d="M23.7348 2.52525H24.0836L24.7718 4.19606L25.4893 2.43506L26.2147 4.19606L26.9063 2.52525H27.2551L26.2037 4.88475L25.4932 3.12873L24.7867 4.88475L23.7353 2.52525H23.7348Z" fill="#121C4E"/>
<path d="M27.5552 4.79671V2.43555L29.5412 4.25058V2.52532H29.8492V4.88482L27.8627 3.08974V4.79629H27.5552V4.79671Z" fill="#121C4E"/>
<path d="M30.4973 4.79677V2.52539H30.8197V4.53909H31.8453V4.79677H30.4973V4.79677Z" fill="#121C4E"/>
<path d="M34.8718 3.66579C34.8718 3.8283 34.836 3.98125 34.764 4.12505C34.6924 4.26886 34.5876 4.39645 34.4504 4.50826C34.3128 4.62006 34.1548 4.70609 33.9764 4.76677C33.7975 4.82746 33.6122 4.85738 33.4204 4.85738C33.2286 4.85738 33.0438 4.82704 32.8664 4.76677C32.689 4.70609 32.5315 4.62006 32.3939 4.50826C32.2553 4.39562 32.1499 4.2672 32.0774 4.1238C32.0048 3.98 31.9686 3.82746 31.9686 3.6662C31.9686 3.50494 32.0048 3.35033 32.0774 3.20611C32.1499 3.06189 32.2553 2.93346 32.3939 2.82041C32.53 2.70985 32.687 2.62465 32.8654 2.56438C33.0438 2.50453 33.2286 2.47461 33.4204 2.47461C33.6122 2.47461 33.799 2.50453 33.9779 2.56438C34.1568 2.62423 34.3143 2.70985 34.4504 2.82041C34.5876 2.93221 34.6924 3.06022 34.764 3.20444C34.8355 3.34867 34.8718 3.50245 34.8718 3.6662V3.66579ZM33.4204 4.6026C33.569 4.6026 33.7101 4.57891 33.8447 4.53195C33.9789 4.48498 34.1001 4.4164 34.2075 4.32663C34.3138 4.23769 34.3948 4.13669 34.4504 4.02405C34.5061 3.91142 34.5339 3.79172 34.5339 3.66579C34.5339 3.53985 34.5056 3.41766 34.4494 3.30295C34.3933 3.18824 34.3123 3.08682 34.2075 2.99871C34.1011 2.90977 33.9809 2.84202 33.8462 2.79547C33.7121 2.74892 33.57 2.72565 33.4204 2.72565C33.2709 2.72565 33.1263 2.74892 32.9916 2.79547C32.857 2.84202 32.7372 2.90977 32.6334 2.99871C32.527 3.08849 32.4461 3.19073 32.3904 3.30419C32.3348 3.41808 32.3069 3.53861 32.3069 3.66579C32.3069 3.79297 32.3343 3.91101 32.3894 4.02239C32.4446 4.1342 32.526 4.23561 32.6334 4.32663C32.7422 4.41765 32.8634 4.48623 32.9961 4.53278C33.1293 4.57933 33.2704 4.6026 33.4204 4.6026Z" fill="#121C4E"/>
<path d="M36.1923 2.43555L37.4275 4.79671H37.0772L36.7249 4.10012H35.6641L35.3118 4.79671H34.9615L36.1928 2.43555H36.1923ZM36.1923 3.0328L35.76 3.86903H36.6241L36.1918 3.0328H36.1923Z" fill="#121C4E"/>
<path d="M37.7068 4.79677V2.52539H38.228C38.6136 2.52539 38.8854 2.5416 39.0429 2.57443C39.2004 2.60685 39.3385 2.66172 39.4573 2.73819C39.6128 2.83877 39.731 2.96678 39.8115 3.12306C39.892 3.27933 39.9323 3.4593 39.9323 3.66295C39.9323 3.86661 39.8925 4.04491 39.8125 4.20035C39.733 4.35621 39.6143 4.48423 39.4573 4.58439C39.3385 4.66087 39.2034 4.71573 39.0518 4.74815C38.9003 4.78056 38.6643 4.79677 38.3443 4.79677H37.7063H37.7068ZM38.0332 4.54241H38.2389C38.5728 4.54241 38.8039 4.53036 38.9326 4.50584C39.0613 4.48132 39.1681 4.43975 39.2535 4.38074C39.3648 4.30343 39.4493 4.20326 39.5075 4.08065C39.5656 3.95805 39.5944 3.81757 39.5944 3.65963C39.5944 3.50169 39.5656 3.36038 39.5084 3.23985C39.4508 3.11932 39.3658 3.01998 39.2535 2.94143C39.1681 2.88158 39.0598 2.83877 38.9281 2.81342C38.7964 2.78807 38.5669 2.7756 38.2389 2.7756H38.0332V4.54241Z" fill="#121C4E"/>
<path d="M44.3581 3.66579C44.3581 3.8283 44.3223 3.98125 44.2503 4.12505C44.1787 4.26886 44.0739 4.39645 43.9368 4.50826C43.7991 4.62006 43.6411 4.70609 43.4628 4.76677C43.2839 4.82746 43.0985 4.85738 42.9067 4.85738C42.715 4.85738 42.5301 4.82704 42.3527 4.76677C42.1754 4.70609 42.0179 4.62006 41.8802 4.50826C41.7416 4.39562 41.6362 4.2672 41.5637 4.1238C41.4912 3.98 41.4549 3.82746 41.4549 3.6662C41.4549 3.50494 41.4912 3.35033 41.5637 3.20611C41.6362 3.06189 41.7416 2.93346 41.8802 2.82041C42.0164 2.70985 42.1734 2.62465 42.3517 2.56438C42.5301 2.50453 42.715 2.47461 42.9067 2.47461C43.0985 2.47461 43.2854 2.50453 43.4642 2.56438C43.6431 2.62423 43.8006 2.70985 43.9368 2.82041C44.0739 2.93221 44.1787 3.06022 44.2503 3.20444C44.3218 3.34867 44.3581 3.50245 44.3581 3.6662V3.66579ZM42.9067 4.6026C43.0553 4.6026 43.1964 4.57891 43.3311 4.53195C43.4652 4.48498 43.5865 4.4164 43.6938 4.32663C43.8001 4.23769 43.8811 4.13669 43.9368 4.02405C43.9924 3.91142 44.0202 3.79172 44.0202 3.66579C44.0202 3.53985 43.9919 3.41766 43.9358 3.30295C43.8796 3.18824 43.7986 3.08682 43.6938 2.99871C43.5875 2.90977 43.4672 2.84202 43.3326 2.79547C43.1984 2.74892 43.0563 2.72565 42.9067 2.72565C42.7572 2.72565 42.6126 2.74892 42.478 2.79547C42.3433 2.84202 42.2236 2.90977 42.1197 2.99871C42.0134 3.08849 41.9324 3.19073 41.8767 3.30419C41.8211 3.41808 41.7933 3.53861 41.7933 3.66579C41.7933 3.79297 41.8206 3.91101 41.8757 4.02239C41.9309 4.1342 42.0124 4.23561 42.1197 4.32663C42.2285 4.41765 42.3498 4.48623 42.4824 4.53278C42.6156 4.57933 42.7567 4.6026 42.9067 4.6026Z" fill="#121C4E"/>
<path d="M44.886 4.79671V2.43555L46.872 4.25058V2.52532H47.18V4.88482L45.1935 3.08974V4.79629H44.886V4.79671Z" fill="#121C4E"/>
<path d="M49.4242 4.79677V2.78308H48.6566V2.52539H50.5148V2.78308H49.7507V4.79677H49.4242Z" fill="#121C4E"/>
<path d="M50.8745 4.79677V2.52539H51.1969V3.39862H52.6398V2.52539H52.9683V4.79677H52.6398V3.65672H51.1969V4.79677H50.8745Z" fill="#121C4E"/>
<path d="M53.6172 4.79677V2.52539H55.0487V2.77227H53.9397V3.42397H55.0487V3.67542H53.9397V4.54574H55.0487V4.79719H53.6172V4.79677Z" fill="#121C4E"/>
<path d="M17.6539 12.7372L20.4145 6.66699H22.1893L24.9897 12.7372H23.2253L22.6355 11.4479H19.8252L19.3199 12.7372H17.6544H17.6539ZM22.2733 10.4276L21.4604 8.46623C21.437 8.40804 21.4072 8.30871 21.371 8.16781C21.3347 8.02691 21.2964 7.85401 21.2572 7.64953C21.2144 7.8457 21.1727 8.02193 21.1335 8.1782C21.0937 8.33447 21.0639 8.4388 21.044 8.49116L20.261 10.4276H22.2733V10.4276Z" fill="#121C4E"/>
<path d="M25.6281 14.5868V8.66994H26.9815V9.34159C27.1664 9.07061 27.3939 8.8682 27.6632 8.73436C27.9325 8.60012 28.2456 8.5332 28.6023 8.5332C29.293 8.5332 29.8331 8.72439 30.2231 9.1076C30.6132 9.49039 30.8079 10.0245 30.8079 10.7102C30.8079 11.396 30.6112 11.901 30.2181 12.3004C29.8251 12.6998 29.3079 12.8993 28.6669 12.8993C28.2804 12.8993 27.9524 12.8391 27.6831 12.719C27.4138 12.5988 27.1833 12.4101 26.9915 12.1529C27.0079 12.2551 27.0203 12.3665 27.0287 12.4866C27.0372 12.6067 27.0412 12.7443 27.0412 12.8993V14.5868H25.6285H25.6281ZM26.9169 10.6978C26.9169 11.0656 27.0253 11.3515 27.2414 11.556C27.458 11.7605 27.7591 11.8628 28.1457 11.8628C28.5323 11.8628 28.8339 11.7605 29.0505 11.556C29.2666 11.3515 29.375 11.0656 29.375 10.6978C29.375 10.3299 29.2651 10.0407 29.0455 9.82912C28.8259 9.61757 28.5228 9.512 28.1363 9.512C27.7497 9.512 27.466 9.6184 27.2464 9.8312C27.0267 10.044 26.9169 10.3329 26.9169 10.6978V10.6978Z" fill="#121C4E"/>
<path d="M31.8848 14.5868V8.66994H33.2382V9.34159C33.4231 9.07061 33.6506 8.8682 33.9199 8.73436C34.1892 8.60012 34.5023 8.5332 34.859 8.5332C35.5497 8.5332 36.0898 8.72439 36.4798 9.1076C36.8699 9.49039 37.0646 10.0245 37.0646 10.7102C37.0646 11.396 36.8679 11.901 36.4748 12.3004C36.0818 12.6998 35.5646 12.8993 34.9236 12.8993C34.5371 12.8993 34.2091 12.8391 33.9398 12.719C33.6705 12.5988 33.44 12.4101 33.2482 12.1529C33.2646 12.2551 33.277 12.3665 33.2854 12.4866C33.2939 12.6067 33.2979 12.7443 33.2979 12.8993V14.5868H31.8853H31.8848ZM33.1736 10.6978C33.1736 11.0656 33.282 11.3515 33.4981 11.556C33.7147 11.7605 34.0158 11.8628 34.4024 11.8628C34.789 11.8628 35.0906 11.7605 35.3072 11.556C35.5233 11.3515 35.6317 11.0656 35.6317 10.6978C35.6317 10.3299 35.5219 10.0407 35.3022 9.82912C35.0826 9.61757 34.7795 9.512 34.393 9.512C34.0064 9.512 33.7227 9.6184 33.5031 9.8312C33.2835 10.044 33.1736 10.3329 33.1736 10.6978V10.6978Z" fill="#121C4E"/>
<path d="M40.9163 11.9663L41.7788 11.1496C41.8881 11.3736 42.063 11.5498 42.3045 11.6783C42.5455 11.8067 42.8168 11.8711 43.1174 11.8711C43.4806 11.8711 43.7683 11.7992 43.98 11.6554C44.1911 11.5116 44.297 11.3183 44.297 11.0748C44.297 10.7872 43.9452 10.5012 43.2411 10.2165C43.0131 10.1251 42.8332 10.0507 42.701 9.9925C42.0665 9.71611 41.6268 9.44596 41.3823 9.18204C41.1379 8.91812 41.0156 8.60349 41.0156 8.23899C41.0156 7.73858 41.2527 7.32752 41.7267 7.00542C42.2007 6.68331 42.8163 6.52246 43.573 6.52246C44.0123 6.52246 44.3919 6.58688 44.7104 6.71531C45.0293 6.84374 45.3111 7.0449 45.5555 7.3188L44.6383 8.05279C44.529 7.87615 44.3849 7.74398 44.2045 7.6567C44.0242 7.56942 43.8071 7.52619 43.5527 7.52619C43.2451 7.52619 42.9976 7.59061 42.8093 7.71904C42.621 7.84747 42.5266 8.01413 42.5266 8.21862C42.5266 8.53907 42.9003 8.83208 43.6471 9.09767C43.7956 9.15003 43.9099 9.1916 43.9889 9.22194C44.6035 9.45718 45.0587 9.72235 45.3543 10.0179C45.65 10.3138 45.798 10.6509 45.798 11.0295C45.798 11.5989 45.566 12.0532 45.1019 12.3915C44.6378 12.7302 44.0138 12.8994 43.2307 12.8994C42.6757 12.8994 42.1997 12.8192 41.8032 12.6587C41.4067 12.4983 41.111 12.2676 40.9158 11.9663H40.9163Z" fill="#121C4E"/>
<path d="M47.1172 12.7372V9.59424H46.438V8.66948H47.1172V7.31787H48.5298V8.66948H49.2085V9.59424H48.5298V12.7372H47.1172Z" fill="#121C4E"/>
<path d="M55.1961 10.7181C55.1961 11.3428 54.9407 11.8628 54.4304 12.2771C53.9197 12.6919 53.2732 12.8989 52.4902 12.8989C51.7071 12.8989 51.0492 12.6915 50.537 12.2771C50.0247 11.8623 49.7688 11.3428 49.7688 10.7181C49.7688 10.0935 50.0267 9.57683 50.5419 9.15913C51.0577 8.74185 51.7066 8.5332 52.4902 8.5332C53.2737 8.5332 53.9241 8.73894 54.4329 9.15082C54.9417 9.5627 55.1961 10.0851 55.1961 10.7181ZM53.7587 10.7098C53.7587 10.3782 53.6429 10.1134 53.4119 9.91598C53.1803 9.71815 52.8698 9.61964 52.4797 9.61964C52.0897 9.61964 51.7806 9.71773 51.5531 9.91391C51.325 10.1101 51.2112 10.3757 51.2112 10.7098C51.2112 11.044 51.325 11.3067 51.5531 11.5057C51.7811 11.7048 52.0902 11.8042 52.4797 11.8042C52.8693 11.8042 53.1763 11.7048 53.4094 11.5057C53.6424 11.3067 53.7587 11.0415 53.7587 10.7098V10.7098Z" fill="#121C4E"/>
<path d="M57.6239 9.71482C57.766 9.31956 57.9702 9.02364 58.2361 8.82746C58.5019 8.63129 58.8318 8.5332 59.2248 8.5332C59.3143 8.5332 59.4608 8.54692 59.666 8.57477C59.7058 8.58017 59.7356 8.58432 59.7555 8.58723L59.5423 9.85613C59.4365 9.81997 59.3297 9.79337 59.2223 9.7755C59.115 9.75763 59.0017 9.74849 58.883 9.74849C58.4532 9.74849 58.1441 9.84034 57.9558 10.024C57.7675 10.2078 57.6731 10.5153 57.6731 10.9467V12.7381H56.2605V8.67077H57.6532L57.6234 9.71565L57.6239 9.71482Z" fill="#121C4E"/>
<path d="M65.1439 10.9956H61.491C61.5471 11.2886 61.6743 11.5077 61.8726 11.6527C62.0708 11.7978 62.3401 11.8705 62.6805 11.8705C62.9383 11.8705 63.1604 11.829 63.3473 11.7462C63.5341 11.6631 63.6901 11.5376 63.8158 11.3689L64.9556 11.8456C64.6913 12.2022 64.3708 12.4669 63.9942 12.6394C63.6176 12.8119 63.1699 12.8984 62.6511 12.8984C61.8646 12.8984 61.242 12.7022 60.7824 12.3094C60.3228 11.9171 60.0933 11.3892 60.0933 10.7255C60.0933 10.0617 60.3337 9.56173 60.8147 9.14984C61.2957 8.73796 61.9108 8.53223 62.6611 8.53223C63.4114 8.53223 64.0459 8.72508 64.495 9.11077C64.9442 9.49647 65.1693 10.0222 65.1693 10.6885C65.1693 10.7242 65.1673 10.7637 65.1643 10.8065C65.1608 10.8493 65.1544 10.9121 65.1444 10.9952L65.1439 10.9956ZM63.7462 10.2824C63.7065 10.0256 63.5952 9.83147 63.4114 9.70013C63.228 9.56879 62.9776 9.50312 62.6606 9.50312C62.3436 9.50312 62.0897 9.56879 61.8999 9.70013C61.7101 9.83147 61.5883 10.0256 61.5357 10.2824H63.7462Z" fill="#121C4E"/>
<path d="M13.499 5.12771C11.0455 6.29894 11.1836 9.55369 13.9954 10.609C13.6953 11.1272 13.4245 11.658 13.0891 12.1584C12.6782 12.7723 12.1689 13.3292 11.5225 13.7918C11.0321 14.1426 10.49 14.2619 9.86641 14.1089C9.3442 13.9809 8.81952 13.86 8.2988 13.729C7.76715 13.5956 7.24245 13.6218 6.71875 13.7573C6.25467 13.8774 5.78712 13.9892 5.32453 14.1147C4.7889 14.2602 4.28409 14.1879 3.86175 13.9019C3.47866 13.6426 3.12091 13.3454 2.81086 13.025C1.64371 11.8197 0.95058 10.4307 0.686245 8.90158C0.524763 7.96684 0.538681 7.02753 0.965492 6.13145C1.48919 5.03046 2.34629 4.21251 3.7743 3.89955C4.52109 3.73579 5.24006 3.83471 5.95207 4.03753C6.29243 4.13437 6.64422 4.20794 6.97612 4.32224C7.28269 4.4278 7.55449 4.37419 7.85062 4.29979C8.57456 4.11775 9.298 3.92074 10.0378 3.79772C11.2736 3.59198 12.9058 4.23745 13.4995 5.1273L13.499 5.12771Z" fill="#121C4E"/>
<path d="M10.5079 0.498725C10.7986 1.96006 8.93528 3.85115 7.33039 3.576C6.93041 2.29547 8.90151 0.376531 10.5079 0.498725Z" fill="#121C4E"/>
</svg>
