<svg width="46" height="44" viewBox="0 0 46 44" fill="none" xmlns="http://www.w3.org/2000/svg">
<path d="M7.51167 17.5733C9.71774 18.3618 11.9997 18.9092 14.3288 19.3553C16.6395 19.7968 18.9764 19.9973 21.3238 20.0942C24.1161 20.2114 26.9031 20.0311 29.6692 19.6684C32.697 19.2697 35.628 18.5781 38.4595 17.5688C38.818 17.4404 38.8965 17.2737 38.8965 16.9831C38.8913 13.1105 38.8913 9.23789 38.8939 5.36305C38.8939 5.15354 38.907 4.94403 38.6374 4.83364C38.5642 4.86969 38.4935 4.93727 38.4202 4.93727C36.8579 4.94628 35.2982 4.95304 33.7359 4.94403C33.3381 4.94403 33.0451 4.71875 33.0398 4.39434C33.0163 3.01337 33.0372 1.63239 33.0477 0.251419C33.0477 0.206362 33.1157 0.161306 33.155 0.11625C33.1183 0.077952 33.0765 0.0509182 33.032 0.0328957C32.9011 -0.018919 32.7493 0.00586192 32.608 0.00586192C24.4354 0.00586192 16.2653 0.00360911 8.09263 0.00586192C7.34681 0.00586192 7.06418 0.246913 7.06156 0.884459C7.05633 6.25517 7.06156 11.6236 7.05371 16.9943C7.05371 17.2962 7.161 17.4471 7.50906 17.5711L7.51167 17.5733ZM22.9699 4.2772C27.0863 4.27269 30.5014 7.20135 30.5119 10.7383C30.5197 14.2887 27.1386 17.1903 22.9882 17.1926C18.8351 17.1948 15.4514 14.3045 15.4488 10.754C15.4488 7.21712 18.8561 4.2817 22.9725 4.2772H22.9699Z" fill="#EAEFF7"/>
<path d="M35.3521 35.4922C34.2766 34.9988 33.2507 34.4334 32.2249 33.8724C31.8821 33.6855 31.5393 33.4985 31.1965 33.3137C28.0117 31.6106 24.8295 29.903 21.6604 28.1773C21.2809 27.9701 21.1396 28.0241 20.9145 28.326C19.8809 29.7047 18.5436 30.75 16.594 31.0587C16.3402 31.0992 16.0785 31.1218 15.822 31.1172C14.5894 31.1015 14.1681 30.6734 14.3722 29.6664C14.8328 28.4589 15.4923 27.3393 16.3245 26.2917C16.1805 26.2647 16.034 26.2422 15.89 26.2129C14.702 25.9808 13.6997 25.4041 12.6424 24.9265C11.9018 25.6654 11.4622 26.5666 10.8839 27.3911C9.58062 29.2587 8.33235 31.1555 7.06837 33.0457C6.94014 33.2371 6.85902 33.4512 6.75696 33.6539C7.57082 34.4019 8.60189 34.9065 9.55707 35.4967C9.65913 35.4539 9.73502 35.3886 9.80306 35.3165C9.8711 35.2444 9.92606 35.1656 9.98887 35.089C10.8943 34.0324 12.3991 34.1676 13.0481 35.3638C13.137 35.526 13.1946 35.6995 13.2679 35.8707C14.3958 35.1475 15.2096 35.2421 16.0732 36.1117C16.3873 36.4294 16.1203 36.943 16.4789 37.1007C16.785 37.2359 17.209 36.889 17.6591 37.0174C18.8446 37.3553 19.2397 38.0717 18.8079 39.2071C19.3313 39.2477 19.8809 39.0945 20.3728 39.3873C21.3725 39.9821 21.4772 40.293 21.0192 41.4081C21.9037 41.8564 22.7935 42.3002 23.6754 42.7598C23.7853 42.8184 23.8978 42.8702 24.0078 42.913C24.3427 43.0414 24.6855 43.0797 25.0624 42.913C25.8239 42.4534 26.1458 42.1087 26.151 41.5996C26.151 41.3676 26.0908 41.104 25.9705 40.7773C25.4759 40.2344 24.73 39.9956 24.0836 39.6351C23.8246 39.491 23.4791 39.3738 23.6963 39.0494C23.9371 38.6935 24.2642 38.9142 24.5364 39.0494C25.8448 39.6982 27.1507 40.3515 28.4565 41.0048C28.645 40.8629 28.7994 40.7142 28.9171 40.5588C28.9773 40.4822 29.027 40.4033 29.0689 40.3222C29.1108 40.2411 29.1422 40.16 29.1657 40.0744C29.2547 39.7388 29.1893 39.3738 28.9485 38.9773C28.5874 38.6011 28.1032 38.3781 27.6217 38.1505C27.4621 38.0762 27.3025 37.9996 27.1455 37.9185C26.8053 37.7405 26.6482 37.5603 26.8733 37.2472C27.1193 36.9047 27.3653 37.1683 27.5772 37.2787C28.8229 37.9117 30.045 38.5808 31.3116 39.1801C31.7198 39.3738 31.623 39.5157 31.4529 39.7455C32.2066 39.6847 32.7849 39.1913 32.8818 38.5943C32.9053 38.4569 32.9001 38.315 32.8687 38.1708C32.8477 38.0807 32.8137 37.9928 32.7902 37.905C32.7666 37.8171 32.7509 37.727 32.7692 37.6324C32.7247 37.5806 32.6803 37.531 32.6332 37.4792C31.6021 36.9363 30.5789 36.3866 29.5399 35.8572C29.2547 35.713 28.9982 35.6184 29.2442 35.2759C29.4667 34.9673 29.6629 35.0799 29.9351 35.2219C31.8036 36.1928 33.6799 37.1503 35.5536 38.1122C36.2314 37.7518 36.4356 37.4634 36.4015 36.9408C36.3937 36.8191 36.3727 36.6862 36.344 36.5375C36.3178 36.4023 36.2654 36.2852 36.2 36.1861C36.0011 35.8842 35.6583 35.713 35.3574 35.4922H35.3521Z" fill="#FED399"/>
<path d="M34.2974 24.3475C33.3814 24.5412 32.4603 24.5593 31.5365 24.4759C31.403 24.4646 31.2722 24.4489 31.1387 24.4331C29.2781 24.2101 27.5483 23.6198 25.795 23.0814C23.5182 22.3808 21.3305 22.5588 19.2788 23.7235C18.6795 24.0636 18.1457 24.4579 17.6616 24.8904C17.2978 25.2148 16.9576 25.5618 16.6383 25.9245C16.531 26.0461 16.4264 26.1678 16.3243 26.2917C15.4921 27.3392 14.8326 28.4611 14.3721 29.6664C15.4869 30.4481 16.6724 30.2521 17.8631 29.8421C19.2343 29.3713 20.166 28.4476 20.9667 27.4474C21.2991 27.0329 21.5189 27.0869 21.8879 27.2874C23.1702 27.9858 24.4499 28.6842 25.7348 29.3758C26.7266 29.9097 27.7341 30.4256 28.7155 30.973C28.9876 31.1262 29.1603 31.1014 29.4063 30.9528C30.003 30.5968 30.4845 30.1372 30.9503 29.6732C31.1963 29.4276 31.3559 29.4794 31.5941 29.6168C31.8846 29.7835 31.7589 29.948 31.6203 30.135C31.1885 30.7117 30.5107 31.0676 29.9035 31.5835C30.6939 32.0183 31.458 32.4621 32.2483 32.8676C33.4338 33.4782 34.5407 34.1991 35.7916 34.7172C36.4511 34.0098 37.1367 33.3295 37.9794 32.8001C38.2594 32.6221 38.5577 32.4621 38.8796 32.3225C38.2018 31.115 37.5371 29.9007 36.8463 28.6999C36.0088 27.2446 35.1531 25.7983 34.3026 24.3475H34.2974Z" fill="#FCC581"/>
<path d="M7.06626 33.0456C8.33023 31.1578 9.57851 29.2586 10.8817 27.391C11.4575 26.5643 11.8997 25.6654 12.6403 24.9265C12.9543 23.8699 12.9308 23.8384 11.7636 23.2706C10.518 22.6646 9.26971 22.0586 8.04237 21.4256C7.69694 21.2476 7.55562 21.2679 7.35674 21.572C6.45913 22.9372 5.53274 24.2889 4.61681 25.6451C3.31097 27.5848 2.0025 29.5222 0.704504 31.4641C0.584125 31.6466 0.301497 31.8404 0.73329 32.0476C2.24849 32.7775 3.74276 33.5367 5.25273 34.2711C5.69499 34.4874 6.09014 34.3883 6.38847 34.0301C6.41726 33.9963 6.44081 33.9603 6.46436 33.9242C6.48792 33.8882 6.50885 33.8521 6.53502 33.8183C6.53502 33.8183 6.53502 33.8161 6.53502 33.8138C6.56119 33.78 6.58736 33.7485 6.62138 33.7215C6.62138 33.7215 6.62138 33.7215 6.624 33.7192C6.65802 33.6922 6.69727 33.6696 6.74699 33.6539C6.74699 33.6539 6.74699 33.6539 6.74961 33.6539C6.85167 33.4511 6.93279 33.2348 7.06102 33.0456H7.06626Z" fill="#868E7B"/>
<path d="M43.1742 27.2221C41.9155 25.0301 40.6541 22.8404 39.398 20.6461C39.2829 20.4456 39.2096 20.306 38.8799 20.4501C37.3516 21.1147 35.805 21.7478 34.2688 22.3988C33.7481 22.6196 33.6329 22.9755 33.8501 23.4306C33.8868 23.5072 33.9313 23.5816 33.9784 23.6536C34.0124 23.7055 34.0464 23.755 34.0778 23.8068C34.1014 23.8406 34.1223 23.8767 34.1432 23.9105C34.2244 24.0456 34.2898 24.1876 34.2976 24.3498C35.1455 25.8006 36.0039 27.2469 36.8413 28.7022C37.5321 29.9052 38.1968 31.1172 38.8746 32.3247C39.0133 32.532 39.1599 32.7392 39.2907 32.951C39.7094 33.6269 40.0104 33.717 40.8007 33.3858C42.185 32.8068 43.5616 32.2143 44.959 31.6556C45.417 31.4732 45.5635 31.32 45.2913 30.8829C44.5508 29.6799 43.8756 28.4454 43.1742 27.2244V27.2221ZM41.1932 31.4484C41.0022 31.4394 40.3741 30.6239 40.3689 30.376C40.3663 30.2296 41.3869 29.6777 41.6276 29.6957C41.7559 29.7047 42.3918 30.7004 42.3813 30.8762C42.3708 31.0496 41.5125 31.4641 41.1932 31.4484Z" fill="#0D5767"/>
<path d="M20.3651 39.3873C19.8731 39.0944 19.3262 39.2476 18.8002 39.2071C18.7897 39.2228 18.7792 39.2386 18.7714 39.2544C18.7818 39.2386 18.7897 39.2228 18.8002 39.2071C19.2319 38.0716 18.8368 37.3552 17.6513 37.0173C17.2012 36.8889 16.7799 37.2358 16.4711 37.1007C16.1152 36.943 16.3821 36.4293 16.0655 36.1117C15.2019 35.2421 14.388 35.1475 13.2601 35.8706C13.1868 35.6994 13.1293 35.526 13.0403 35.3638C12.3913 34.1698 10.8839 34.0323 9.9811 35.0889C9.91568 35.1633 9.86072 35.2444 9.7953 35.3164C9.72987 35.3885 9.65398 35.4516 9.54931 35.4967C9.52314 35.6634 9.43416 35.7985 9.32687 35.927C9.21957 36.0554 9.09658 36.1748 9.01022 36.3122C8.55226 37.0218 8.72759 37.6233 9.47342 38.1189C10.1146 38.5447 10.774 38.4884 11.546 38.2181C11.3053 39.1237 11.8444 39.5945 12.6111 39.9437C13.425 40.3132 14.0059 39.9144 14.5764 39.4549C14.6445 39.6892 14.6863 39.8874 14.7622 40.0766C15.0396 40.7705 16.0969 41.2842 16.8479 41.0318C17.2954 40.8832 17.3739 40.9372 17.3949 41.3382C17.4236 41.9307 18.0753 42.5029 18.7897 42.6629C19.3994 42.8003 19.9987 42.566 20.4514 42.0231C20.6268 41.8136 20.823 41.6131 21.0088 41.4081C21.4668 40.2929 21.3621 39.982 20.3625 39.3873H20.3651Z" fill="#FDC682"/>
<path d="M15.8197 31.1172C16.0762 31.1195 16.3379 31.0992 16.5917 31.0587C18.544 30.75 19.8786 29.7047 20.9123 28.326C21.1373 28.0241 21.2787 27.9701 21.6581 28.1773C24.8272 29.903 28.0094 31.6106 31.1942 33.3137C31.5396 33.4985 31.8798 33.6855 32.2227 33.8724C33.2485 34.4356 34.2743 34.9988 35.3499 35.4922C35.4153 35.2016 35.7843 35.0349 35.7843 34.7172C34.5334 34.2014 33.4264 33.4782 32.241 32.8677C31.4507 32.4622 30.6891 32.0184 29.8962 31.5836C30.5033 31.0677 31.1811 30.7117 31.6129 30.135C31.7516 29.948 31.8772 29.7836 31.5867 29.6169C31.3486 29.4795 31.1916 29.4276 30.943 29.6732C30.4772 30.1373 29.9957 30.5968 29.399 30.9528C29.1504 31.1015 28.9803 31.124 28.7081 30.9731C27.7268 30.4234 26.7193 29.9097 25.7274 29.3758C24.4425 28.6842 23.1628 27.9836 21.8806 27.2875C21.5116 27.087 21.2917 27.0329 20.9594 27.4474C20.1586 28.4477 19.2244 29.3713 17.8557 29.8422C16.665 30.2522 15.4795 30.4482 14.3647 29.6664C14.1606 30.6757 14.5819 31.1015 15.8145 31.1172H15.8197Z" fill="#E9AA5E"/>
<path d="M33.0499 0.251385C33.0394 1.63236 33.0185 3.01334 33.042 4.39431C33.0472 4.71872 33.3403 4.94174 33.7381 4.944C35.3004 4.95301 36.8601 4.944 38.4224 4.93724C38.4957 4.93724 38.5663 4.86965 38.6396 4.83361C37.7472 4.02936 36.8444 3.23411 35.9311 2.44788C35.0178 1.66165 34.094 0.884426 33.1572 0.118469C33.1205 0.163526 33.0525 0.208582 33.0499 0.253638V0.251385Z" fill="#BACBE5"/>
<path d="M35.5489 38.1122C33.6752 37.1503 31.7988 36.1928 29.9304 35.2219C29.6582 35.0799 29.4593 34.9673 29.2395 35.2759C28.9935 35.6183 29.25 35.713 29.5352 35.8571C30.5741 36.3866 31.6 36.9362 32.6284 37.4792C32.6729 37.531 32.72 37.5805 32.7645 37.6324C33.0602 37.6616 33.2931 37.7968 33.5286 37.932C33.6699 38.0131 33.8113 38.0942 33.9657 38.1505C34.0991 38.2001 34.2352 38.2429 34.3687 38.2767C34.4419 38.2947 34.5178 38.3082 34.5911 38.3172C34.9156 38.36 35.2349 38.3172 35.5489 38.1122Z" fill="#E8B575"/>
<path d="M32.7609 37.6324L32.7687 37.6402C32.7687 37.6402 32.7661 37.635 32.7635 37.6324H32.7609Z" fill="#E8B575"/>
<path d="M31.3041 39.1823C30.0375 38.5831 28.8154 37.9117 27.5697 37.281C27.3551 37.1728 27.1091 36.907 26.8658 37.2494C26.6433 37.5603 26.7977 37.7405 27.1379 37.9208C27.2923 38.0019 27.4519 38.0785 27.6142 38.1528C28.0957 38.3781 28.5798 38.6011 28.941 38.9796C29.043 38.9908 29.1477 39.0021 29.2498 39.0134C29.5874 39.1621 29.8883 39.3738 30.2259 39.5248C30.3306 39.5721 30.4405 39.6149 30.553 39.6464C30.621 39.6644 30.6943 39.6802 30.7676 39.6915C30.922 39.6599 31.0738 39.6352 31.1994 39.7546C31.2805 39.7546 31.3616 39.7523 31.4454 39.75C31.6155 39.5225 31.7123 39.3783 31.3041 39.1846V39.1823Z" fill="#E8B576"/>
<path d="M28.4512 41.0026C27.1454 40.3493 25.8395 39.6959 24.5311 39.0471C24.2563 38.912 23.9318 38.6912 23.691 39.0471C23.4712 39.3715 23.8166 39.4864 24.0783 39.6329C24.7247 39.9933 25.4705 40.2321 25.9651 40.775C26.0332 40.7773 26.1038 40.7818 26.1719 40.784C26.4257 40.8111 26.6089 40.9598 26.8183 41.0656C26.847 41.0814 26.8784 41.0949 26.9098 41.1085C27.4673 41.3427 28.0299 41.4892 28.6108 41.1603C28.5585 41.1085 28.5062 41.0566 28.4538 41.0048L28.4512 41.0026Z" fill="#E8B576"/>
<path d="M29.2491 39.0111C29.1471 38.9998 29.0424 38.9886 28.9403 38.9773C29.1837 39.3738 29.2491 39.7365 29.1576 40.0744C29.134 40.1578 29.1026 40.2411 29.0607 40.3222C29.0189 40.4033 28.9691 40.4822 28.9089 40.5588C28.7912 40.7142 28.6342 40.8629 28.4484 41.0048C28.5007 41.0566 28.553 41.1085 28.6054 41.1603C28.7258 41.104 28.8331 41.0454 28.9273 40.9846C29.5946 40.552 29.6809 39.964 29.2465 39.0133L29.2491 39.0111Z" fill="#EA7271"/>
<path d="M30.7695 39.6869C30.8009 39.7117 30.835 39.732 30.869 39.7455C30.971 39.786 31.0836 39.7815 31.2013 39.75C31.0783 39.6306 30.9239 39.6554 30.7695 39.6869Z" fill="#FED399"/>
<path d="M22.9853 17.1926C27.1358 17.1904 30.5169 14.2887 30.509 10.7383C30.5012 7.19913 27.0835 4.27272 22.967 4.27723C18.8506 4.28173 15.4407 7.21715 15.4434 10.7541C15.4434 14.3045 18.8297 17.1949 22.9827 17.1926H22.9853ZM18.6962 11.6372C19.0809 11.3353 19.4577 11.0222 19.8058 10.6865C20.0622 10.4387 20.2297 10.4116 20.5281 10.6685C21.3655 11.3871 21.3812 11.3736 22.2343 10.6392C23.2784 9.7403 24.3383 8.85044 25.3668 7.93805C25.6651 7.67222 25.8718 7.57985 26.1806 7.91552C26.581 8.35032 27.4394 8.6612 27.4053 9.1388C27.3766 9.55107 26.6255 9.92954 26.1832 10.3125C24.9245 11.3984 23.6579 12.4775 22.4018 13.5656C22.1139 13.8156 21.7999 13.9936 21.2922 14.0049C20.9912 14.0049 20.672 13.872 20.3972 13.6332C19.832 13.1398 19.2719 12.6442 18.6831 12.1733C18.4162 11.9593 18.4581 11.8287 18.7014 11.6394L18.6962 11.6372Z" fill="#B09357"/>
<path d="M41.6251 29.6957C41.3843 29.6777 40.3637 30.2296 40.3663 30.376C40.3716 30.6238 40.9996 31.4394 41.1907 31.4484C41.5099 31.4641 42.3683 31.0496 42.3788 30.8762C42.3892 30.7004 41.7559 29.7069 41.6251 29.6957Z" fill="#20878F"/>
<path d="M18.8022 39.2094C18.7918 39.2251 18.7839 39.2409 18.7734 39.2567C18.7839 39.2409 18.7944 39.2251 18.8022 39.2094Z" fill="#FED399"/>
<path d="M20.3933 13.6332C20.6681 13.872 20.9874 14.0049 21.2883 14.0049C21.796 13.9936 22.11 13.8157 22.3979 13.5656C23.654 12.4775 24.9232 11.4007 26.1794 10.3125C26.6242 9.92956 27.3727 9.55109 27.4015 9.13883C27.4355 8.66348 26.5771 8.35034 26.1768 7.91555C25.868 7.57988 25.6612 7.67224 25.3629 7.93808C24.3344 8.85047 23.2772 9.74033 22.2304 10.6392C21.3773 11.3736 21.3616 11.3894 20.5242 10.6685C20.2259 10.4117 20.0584 10.4387 19.8019 10.6865C19.4539 11.0199 19.0796 11.3353 18.6923 11.6372C18.449 11.8264 18.4097 11.9571 18.674 12.1711C19.2628 12.642 19.8229 13.1398 20.3881 13.6309L20.3933 13.6332Z" fill="#EDF0ED"/>
</svg>
