<svg width="72" height="16" viewBox="0 0 72 16" fill="none" xmlns="http://www.w3.org/2000/svg">
<path d="M1.36483 15.0276C1.10198 15.0713 0.950438 14.9358 0.831686 14.7766C0.689085 14.5854 0.663744 14.3643 0.662254 14.144C0.658775 13.6129 0.66126 13.0817 0.66126 12.5505C0.66126 8.85563 0.66126 5.16115 0.66126 1.46625C0.66126 1.26343 0.675669 1.05977 0.786471 0.876481C0.902242 0.686126 1.06124 0.530683 1.35141 0.535255C1.41799 0.546476 1.45178 0.593857 1.49501 0.630017C4.16519 2.86358 6.83586 5.09672 9.50554 7.3307C9.66653 7.46536 9.82652 7.60086 9.99347 7.73053C10.0019 7.74591 10.0049 7.76212 10.0019 7.77875C9.9726 7.84026 9.91148 7.87974 9.85832 7.92463C9.60044 8.14159 9.34157 8.35813 9.08221 8.57425C6.57898 10.6623 4.11848 12.7866 1.60283 14.8643C1.53028 14.9241 1.47116 15.0002 1.36532 15.0268L1.36483 15.0276Z" fill="#3BCBFE"/>
<path d="M9.97087 7.73718C9.88044 7.73801 9.84615 7.67109 9.79547 7.6287C7.03089 5.31825 4.26829 3.00655 1.5057 0.694847C1.44806 0.646635 1.3785 0.605488 1.35266 0.535248C1.5847 0.437992 1.7904 0.528598 1.98468 0.612554C2.43733 0.807897 2.88203 1.01612 3.32921 1.21978C6.37651 2.6088 9.42382 3.99823 12.4701 5.38849C12.5342 5.41758 12.6142 5.43254 12.6505 5.49572C12.6505 5.57552 12.5765 5.61583 12.5198 5.66363C11.7377 6.31948 10.9547 6.97451 10.1706 7.6287C10.114 7.67566 10.0678 7.7405 9.97037 7.73718H9.97087Z" fill="#48FE48"/>
<path d="M1.36475 15.0276C2.68592 13.9109 4.0066 12.7941 5.32828 11.6777C6.82038 10.418 8.31297 9.15862 9.80606 7.89969C9.85923 7.85481 9.91637 7.81324 9.97152 7.77002C10.0485 7.77376 10.0918 7.82197 10.14 7.86187C10.9489 8.53726 11.7563 9.21348 12.5642 9.88928C12.6029 9.9217 12.6467 9.95121 12.6576 10.0003C12.2546 10.2322 11.8124 10.4072 11.3851 10.6033C8.30949 12.0156 5.23089 13.4237 2.15228 14.8315C1.90832 14.9433 1.66635 15.0729 1.36475 15.0272V15.0276Z" fill="#FE3333"/>
<path d="M12.6564 10.0004C12.633 9.98916 12.6047 9.98127 12.5863 9.96589C11.7138 9.23439 10.8423 8.50206 9.97031 7.77015C9.97081 7.75934 9.97031 7.74812 9.96832 7.73731C10.8617 6.99044 11.7551 6.24315 12.6484 5.49627C12.718 5.48422 12.7642 5.5262 12.8169 5.54989C14.0208 6.09934 15.2242 6.64921 16.4271 7.1995C16.682 7.31629 16.9359 7.45427 16.9384 7.72194C16.9409 7.99749 16.7069 8.16832 16.4366 8.29217C15.2227 8.84952 14.0064 9.40438 12.7905 9.95882C12.7493 9.97753 12.7016 9.98625 12.6569 9.99997L12.6564 10.0004Z" fill="#FED300"/>
<path d="M25.8624 9.42111H27.9124C27.8379 9.92235 27.588 10.338 27.1686 10.658C26.7145 11.0042 26.1366 11.1796 25.451 11.1796C24.6704 11.1796 24.0195 10.9577 23.5171 10.5204C23.0133 10.082 22.7579 9.51089 22.7579 8.82344C22.7579 8.09111 23.0098 7.49178 23.5067 7.04208C24.0011 6.59487 24.655 6.36835 25.451 6.36835C25.9384 6.36835 26.3712 6.45605 26.7369 6.62853C27.1025 6.80102 27.4126 7.06452 27.6595 7.41157L27.7395 7.52462L28.6806 6.8937L28.6115 6.80642C28.2637 6.36711 27.8185 6.03336 27.2889 5.81474C26.7622 5.59696 26.1337 5.48682 25.4206 5.48682C24.8835 5.48682 24.3857 5.55581 23.9415 5.69213C23.4948 5.82929 23.0968 6.03461 22.7584 6.3031C22.3569 6.62188 22.0529 6.99595 21.8536 7.41573C21.6554 7.83343 21.555 8.30724 21.555 8.82344C21.555 9.45187 21.7239 10.0221 22.0563 10.5175C22.3902 11.0146 22.8702 11.4099 23.4843 11.6925C23.7531 11.8122 24.0513 11.9045 24.3693 11.9672C24.6863 12.0296 25.0231 12.0612 25.371 12.0612C26.5202 12.0612 27.4419 11.7715 28.1107 11.2008C28.779 10.6302 29.1179 9.84463 29.1179 8.86501V8.5483H25.8614V9.42153L25.8624 9.42111Z" fill="#68607C"/>
<path d="M33.8324 8.38622C33.5805 8.18131 33.2963 8.02338 32.9867 7.91656C32.6767 7.80933 32.3438 7.75488 31.9984 7.75488C31.6531 7.75488 31.3103 7.8085 30.9987 7.91407C30.6872 8.02005 30.4045 8.17632 30.159 8.37873C29.9131 8.58156 29.7233 8.81597 29.5956 9.07532C29.4674 9.33467 29.4023 9.61397 29.4023 9.90615C29.4023 10.1983 29.4674 10.476 29.5956 10.7312C29.7233 10.9859 29.9126 11.2204 30.159 11.4294C30.404 11.6314 30.6867 11.7889 31.0002 11.8978C31.3137 12.0063 31.6496 12.0616 31.9984 12.0616C32.3472 12.0616 32.6687 12.0059 32.9822 11.8957C33.2948 11.786 33.581 11.6252 33.8324 11.4178C34.0783 11.2179 34.2681 10.9864 34.3968 10.7295C34.525 10.4726 34.5901 10.1958 34.5901 9.90657C34.5901 9.61729 34.525 9.33965 34.3968 9.07989C34.2686 8.82013 34.0783 8.58696 33.8324 8.38663V8.38622ZM33.4865 9.90574C33.4865 10.2781 33.3439 10.584 33.0503 10.8409C32.7586 11.0965 32.4143 11.2208 31.9984 11.2208C31.5825 11.2208 31.2313 11.0965 30.9361 10.8405C30.6395 10.5836 30.4954 10.2777 30.4954 9.90574C30.4954 9.53375 30.639 9.22785 30.9336 8.97058C31.2273 8.71497 31.5756 8.5907 31.9979 8.5907C32.4203 8.5907 32.7581 8.71497 33.0498 8.97058C33.3435 9.22744 33.4861 9.53375 33.4861 9.90574H33.4865Z" fill="#68607C"/>
<path d="M39.4496 8.38622C39.1976 8.18131 38.9134 8.02338 38.6039 7.91656C38.2938 7.80933 37.9609 7.75488 37.6156 7.75488C37.2703 7.75488 36.9275 7.8085 36.6159 7.91407C36.3044 8.02005 36.0217 8.17632 35.7762 8.37873C35.5303 8.58156 35.3404 8.81597 35.2128 9.07532C35.0846 9.33467 35.0195 9.61397 35.0195 9.90615C35.0195 10.1983 35.0846 10.476 35.2128 10.7312C35.3404 10.9859 35.5298 11.2204 35.7762 11.4294C36.0212 11.6314 36.3039 11.7889 36.6174 11.8978C36.9309 12.0063 37.2668 12.0616 37.6156 12.0616C37.9644 12.0616 38.2859 12.0059 38.5994 11.8957C38.912 11.786 39.1981 11.6252 39.4496 11.4178C39.6955 11.2179 39.8853 10.9864 40.014 10.7295C40.1422 10.4726 40.2073 10.1958 40.2073 9.90657C40.2073 9.61729 40.1422 9.33965 40.014 9.07989C39.8858 8.82013 39.6955 8.58696 39.4496 8.38663V8.38622ZM39.1037 9.90574C39.1037 10.2781 38.9611 10.584 38.6675 10.8409C38.3758 11.0965 38.0315 11.2208 37.6156 11.2208C37.1997 11.2208 36.8484 11.0965 36.5533 10.8405C36.2567 10.5836 36.1126 10.2777 36.1126 9.90574C36.1126 9.53375 36.2562 9.22785 36.5508 8.97058C36.8445 8.71497 37.1928 8.5907 37.6151 8.5907C38.0375 8.5907 38.3753 8.71497 38.667 8.97058C38.9606 9.22744 39.1032 9.53375 39.1032 9.90574H39.1037Z" fill="#68607C"/>
<path d="M44.4395 8.32062C44.3058 8.18471 44.1503 8.07208 43.9749 7.98438C43.6713 7.83226 43.3156 7.75537 42.9171 7.75537C42.2339 7.75537 41.6794 7.95113 41.2689 8.33683C40.8625 8.71879 40.6563 9.23873 40.6563 9.88129C40.6563 10.5238 40.8685 11.0396 41.2863 11.4287C41.7082 11.821 42.2701 12.0201 42.9558 12.0201C43.332 12.0201 43.6768 11.9415 43.9804 11.7865C44.1597 11.6951 44.3197 11.5791 44.4589 11.4403V11.7034C44.4589 11.9262 44.4449 12.0978 44.4171 12.2138C44.3908 12.3239 44.3471 12.4207 44.285 12.5051C44.1831 12.651 44.039 12.7578 43.8447 12.8326C43.645 12.9095 43.397 12.9482 43.1089 12.9482C42.8515 12.9482 42.5161 12.9365 42.2006 12.7412C41.9507 12.5866 41.8299 12.3858 41.7738 12.2666C41.6297 12.3048 41.4851 12.3426 41.341 12.3808C41.1552 12.434 40.9688 12.4872 40.783 12.5404C40.8173 12.6119 40.8516 12.6834 40.8854 12.7549C40.9331 12.8376 41.0016 12.9403 41.099 13.0488C41.099 13.0488 41.2322 13.2034 41.4096 13.3247C41.8165 13.6024 42.3849 13.7428 43.0984 13.7428C43.5074 13.7428 43.8765 13.6934 44.195 13.5953C44.5185 13.496 44.7967 13.3426 45.0213 13.1398C45.1858 12.9902 45.305 12.8189 45.3771 12.6302C45.4476 12.4436 45.4824 12.1456 45.4824 11.7196V7.89128H44.4385V8.32062H44.4395ZM44.0792 8.95777C44.3317 9.19385 44.4593 9.51304 44.4593 9.90622C44.4593 10.2994 44.3391 10.6232 44.1016 10.8439C43.8651 11.0646 43.5436 11.1714 43.1193 11.1714C42.695 11.1714 42.3447 11.0625 42.1082 10.8381C41.8702 10.6128 41.7499 10.2824 41.7499 9.85635C41.7499 9.45777 41.8692 9.14605 42.1047 8.92909C42.3397 8.71255 42.6622 8.60699 43.09 8.60699C43.5178 8.60699 43.8278 8.7217 44.0792 8.95694V8.95777Z" fill="#68607C"/>
<path d="M47.1942 5.26807H46.1304V11.9002H47.1942V5.26807Z" fill="#68607C"/>
<path d="M51.7299 10.2534C51.713 10.2775 51.6683 10.3377 51.5973 10.4084C51.565 10.4404 51.4835 10.516 51.3289 10.6162C51.2266 10.6827 51.1133 10.7588 50.9454 10.8182C50.5692 10.952 50.2224 10.9558 49.8845 10.829C49.5601 10.7077 49.3161 10.4928 49.1407 10.1736L52.435 9.0011L52.3217 8.77833C52.0191 8.18357 51.5838 7.77418 51.0278 7.56096C50.4674 7.34609 49.8542 7.3544 49.2048 7.58549C48.5624 7.81408 48.1231 8.19063 47.8995 8.70434C47.677 9.21556 47.7112 9.76335 48.0009 10.3336C48.3025 10.9263 48.7586 11.339 49.3574 11.5609C49.5586 11.6353 49.7638 11.6844 49.9735 11.7072C50.5722 11.7733 51.0368 11.6199 51.2688 11.5393C51.717 11.3847 52.0355 11.1615 52.19 11.014C52.3341 10.8764 52.4419 10.721 52.4419 10.721C52.4891 10.6528 52.5239 10.5925 52.5488 10.546C52.2993 10.4088 52.0504 10.2721 51.8015 10.1349C51.7846 10.1669 51.7607 10.2077 51.7289 10.253L51.7299 10.2534ZM48.8848 8.83901C49.013 8.60792 49.2292 8.44084 49.5452 8.32821C49.893 8.20435 50.206 8.18107 50.4758 8.25921C50.7098 8.32696 50.9002 8.46328 51.0537 8.67442L48.8078 9.47366C48.7502 9.24424 48.7755 9.0356 48.8848 8.83901Z" fill="#68607C"/>
<path d="M58.8542 5.94516C58.656 5.82961 58.4204 5.74607 58.1541 5.6962C57.8913 5.64715 57.4988 5.62305 56.9537 5.62305H55.3006V11.8998H56.4136V9.18536H56.9537C57.5027 9.18536 57.8962 9.16125 58.1566 9.11221C58.4219 9.06233 58.657 8.97671 58.8557 8.85826C59.1051 8.70947 59.3019 8.50373 59.4415 8.24646C59.5791 7.99293 59.6487 7.70865 59.6487 7.40192C59.6487 7.09519 59.5791 6.8109 59.4415 6.55737C59.3019 6.30051 59.1051 6.09478 58.8542 5.94474V5.94516ZM56.4136 6.50874H56.7117C57.4034 6.50874 57.8744 6.58064 58.1114 6.72279C58.3375 6.85828 58.4468 7.09435 58.4468 7.44389C58.4468 7.76725 58.3414 7.9842 58.1238 8.10723C57.8933 8.23815 57.4178 8.30465 56.7112 8.30465H56.4131V6.50916L56.4136 6.50874Z" fill="#68607C"/>
<path d="M61.1878 5.26758H60.124V11.8997H61.1878V5.26758Z" fill="#68607C"/>
<path d="M69.9745 7.89111L68.6757 10.4227L67.4499 7.89111H66.2554L68.0874 11.4123L66.7985 13.7423H67.9696L71.1258 7.89111H69.9745Z" fill="#68607C"/>
<path d="M66.1913 11.7816C65.8559 11.7816 65.5205 11.7816 65.1851 11.7816C65.1851 11.7084 65.1851 11.6353 65.1851 11.5613C65.1851 11.4653 65.1841 11.3697 65.1826 11.2745C65.0709 11.3738 65.0018 11.4333 64.9352 11.4952C64.484 11.915 63.5996 12.0363 62.8841 11.7762C62.195 11.5251 61.8641 11.0546 61.9326 10.4225C61.9868 9.92456 62.4593 9.48359 63.1117 9.32316C63.8679 9.13696 64.1889 9.14818 65.1533 9.39506C65.2254 9.02806 65.0092 8.7284 64.5467 8.58459C64.2222 8.4836 63.9131 8.45533 63.625 8.52724C63.3358 8.59956 63.1455 8.75916 63.068 8.82275C63.0059 8.87387 62.9592 8.92125 62.9274 8.95575C62.8056 8.91335 62.6799 8.86722 62.5512 8.81693C62.3689 8.74502 62.1979 8.67146 62.039 8.59789C62.1463 8.45658 62.3415 8.23963 62.6625 8.0555C63.1708 7.76415 63.6786 7.73755 63.9007 7.72882C64.3916 7.70929 64.8845 7.81652 65.3695 8.04262C65.8733 8.27745 66.154 8.68808 66.1779 9.15358C66.2221 10.0189 66.1908 10.8871 66.1908 11.782L66.1913 11.7816ZM63.9439 9.85183C63.532 9.91085 63.2826 10.085 63.2235 10.1278C63.0973 10.2201 62.9611 10.3202 62.9298 10.4761C62.8901 10.6756 63.0123 10.8896 63.2762 11.0305C63.9345 11.3826 65.1031 10.9133 65.1682 10.2621C65.1782 10.1648 65.0758 10.097 65.0013 10.0347C64.6599 9.74917 64.1174 9.82689 63.9435 9.85183H63.9439Z" fill="#68607C"/>
<path d="M23.6213 2.81312H24.8098V2.89375C24.8098 3.27321 24.6812 3.57288 24.4243 3.79233C24.1674 4.01178 23.8161 4.1215 23.3714 4.1215C23.2363 4.1215 23.1076 4.10945 22.9848 4.08534C22.8621 4.06124 22.7488 4.02591 22.6455 3.97977C22.4095 3.8713 22.2271 3.72126 22.0984 3.52965C21.9697 3.33805 21.9056 3.12068 21.9056 2.87712C21.9056 2.67638 21.9439 2.49517 22.0209 2.33307C22.0974 2.17139 22.2132 2.02884 22.3682 1.90581C22.4979 1.80274 22.649 1.7246 22.8209 1.67223C22.9928 1.61945 23.1831 1.59326 23.3918 1.59326C23.6685 1.59326 23.9085 1.63524 24.1117 1.7192C24.315 1.80315 24.4834 1.9295 24.6176 2.09866L24.3304 2.29109C24.2265 2.14521 24.0973 2.0359 23.9428 1.96275C23.7883 1.8896 23.6084 1.85303 23.4037 1.85303C23.0693 1.85303 22.7975 1.94737 22.5888 2.13607C22.3802 2.32476 22.2758 2.57164 22.2758 2.87671C22.2758 3.16432 22.3816 3.39998 22.5938 3.58452C22.8055 3.76905 23.0758 3.86091 23.4037 3.86091C23.6924 3.86091 23.9324 3.78776 24.1247 3.64104C24.3169 3.49474 24.4233 3.30397 24.4446 3.06914H23.6223V2.81229L23.6213 2.81312Z" fill="#68607C"/>
<path d="M25.3185 4.05725V1.64746H26.8374V1.9093H25.6608V2.60049H26.8374V2.86732H25.6608V3.79083H26.8374V4.05766H25.3185V4.05725Z" fill="#68607C"/>
<path d="M27.92 4.05732V1.92101H27.1057V1.64795H29.0772V1.92101H28.2663V4.05732H27.92V4.05732Z" fill="#68607C"/>
<path d="M30.6507 4.05725V1.64746H30.993V4.05725H30.6507Z" fill="#68607C"/>
<path d="M32.1961 4.05732V1.92101H31.3817V1.64795H33.3533V1.92101H32.5424V4.05732H32.1961Z" fill="#68607C"/>
<path d="M37.8694 2.85815C37.8694 3.03063 37.8311 3.19273 37.7551 3.34526C37.6791 3.4978 37.5683 3.63329 37.4222 3.75174C37.2766 3.87019 37.1087 3.96163 36.9194 4.02564C36.7296 4.09006 36.5328 4.12206 36.3296 4.12206C36.1264 4.12206 35.9301 4.09006 35.7418 4.02564C35.5535 3.96163 35.3865 3.87019 35.2405 3.75174C35.0934 3.63204 34.9816 3.49613 34.9046 3.3436C34.8276 3.19106 34.7893 3.02939 34.7893 2.85815C34.7893 2.68691 34.8276 2.52316 34.9046 2.37021C34.9816 2.21726 35.0934 2.08093 35.2405 1.96123C35.3851 1.84361 35.5515 1.75342 35.7408 1.68983C35.9301 1.62624 36.1259 1.59424 36.3296 1.59424C36.5333 1.59424 36.7316 1.62624 36.9214 1.68983C37.1112 1.75342 37.2781 1.84403 37.4227 1.96123C37.5683 2.07969 37.6791 2.2156 37.7556 2.36855C37.8316 2.5215 37.8699 2.68484 37.8699 2.85815H37.8694ZM36.3296 3.85232C36.4871 3.85232 36.6372 3.82738 36.7798 3.77751C36.9224 3.72763 37.0506 3.6549 37.1648 3.55931C37.2776 3.46496 37.3636 3.35815 37.4227 3.23845C37.4818 3.11875 37.5112 2.99198 37.5112 2.85815C37.5112 2.72432 37.4814 2.59464 37.4217 2.47287C37.3621 2.35109 37.2761 2.24344 37.1648 2.15034C37.0521 2.056 36.9244 1.98409 36.7818 1.93463C36.6392 1.88518 36.4886 1.86065 36.3296 1.86065C36.1706 1.86065 36.0176 1.88518 35.8745 1.93463C35.7314 1.98409 35.6047 2.056 35.4944 2.15034C35.3816 2.24594 35.2956 2.354 35.2365 2.47453C35.1774 2.59506 35.1481 2.72307 35.1481 2.85815C35.1481 2.99323 35.1774 3.11833 35.2355 3.23678C35.2941 3.35524 35.3801 3.46288 35.4944 3.55931C35.6101 3.65573 35.7383 3.72888 35.8794 3.77834C36.0206 3.8278 36.1706 3.85232 36.3296 3.85232V3.85232Z" fill="#68607C"/>
<path d="M38.4278 4.05763V1.55225L40.5355 3.47825V1.64784H40.862V4.15156L38.7542 2.24717V4.05763H38.4278V4.05763Z" fill="#68607C"/>
</svg>
