<svg width="24" height="25" viewBox="0 0 24 25" fill="none" xmlns="http://www.w3.org/2000/svg">
<path fill-rule="evenodd" clip-rule="evenodd" d="M9.59998 9.93325C9.91824 9.93325 10.2235 9.80682 10.4485 9.58178C10.6736 9.35674 10.8 9.05151 10.8 8.73325C10.8 8.41499 10.6736 8.10977 10.4485 7.88472C10.2235 7.65968 9.91824 7.53325 9.59998 7.53325C9.28172 7.53325 8.9765 7.65968 8.75145 7.88472C8.52641 8.10977 8.39998 8.41499 8.39998 8.73325C8.39998 9.05151 8.52641 9.35674 8.75145 9.58178C8.9765 9.80682 9.28172 9.93325 9.59998 9.93325ZM9.59998 11.1333C10.2365 11.1333 10.847 10.8804 11.297 10.4303C11.7471 9.98022 12 9.36977 12 8.73325C12 8.09673 11.7471 7.48628 11.297 7.0362C10.847 6.58611 10.2365 6.33325 9.59998 6.33325C8.96346 6.33325 8.35301 6.58611 7.90293 7.0362C7.45284 7.48628 7.19998 8.09673 7.19998 8.73325C7.19998 9.36977 7.45284 9.98022 7.90293 10.4303C8.35301 10.8804 8.96346 11.1333 9.59998 11.1333Z" fill="#A5A3AB"/>
<path d="M8.99997 13.1468L6.70797 16.2332H8.99997L11.292 17.4332H6.70797C6.48573 17.433 6.26791 17.371 6.0788 17.2543C5.88969 17.1376 5.73671 16.9706 5.63692 16.772C5.53713 16.5734 5.49445 16.351 5.51364 16.1296C5.53282 15.9082 5.61312 15.6965 5.74557 15.518L8.03637 12.4316C8.14801 12.2812 8.2933 12.159 8.46063 12.0748C8.62795 11.9906 8.81266 11.9468 8.99997 11.9468C9.18729 11.9468 9.372 11.9906 9.53932 12.0748C9.70665 12.159 9.85194 12.2812 9.96358 12.4316L11.1096 13.9748L10.146 14.69L8.99997 13.1468Z" fill="#A5A3AB"/>
<path fill-rule="evenodd" clip-rule="evenodd" d="M17.1084 16.2334L13.5 12.067L9.89158 16.2334H17.1084ZM14.4072 11.281C14.2945 11.1509 14.1552 11.0465 13.9987 10.975C13.8422 10.9035 13.6721 10.8665 13.5 10.8665C13.3279 10.8665 13.1578 10.9035 13.0013 10.975C12.8447 11.0465 12.7054 11.1509 12.5928 11.281L8.98438 15.4474C8.83366 15.6212 8.73611 15.8348 8.70335 16.0625C8.6706 16.2903 8.70401 16.5227 8.79962 16.732C8.89523 16.9413 9.04899 17.1187 9.2426 17.243C9.4362 17.3674 9.66148 17.4335 9.89158 17.4334H17.1084C17.3385 17.4335 17.5638 17.3674 17.7574 17.243C17.951 17.1187 18.1047 16.9413 18.2003 16.732C18.2959 16.5227 18.3294 16.2903 18.2966 16.0625C18.2638 15.8348 18.1663 15.6212 18.0156 15.4474L14.4072 11.281Z" fill="#A5A3AB"/>
<path fill-rule="evenodd" clip-rule="evenodd" d="M20.4 3.3333H3.59999C3.44086 3.3333 3.28825 3.39651 3.17572 3.50904C3.0632 3.62156 2.99999 3.77417 2.99999 3.9333V20.7333C2.99999 20.8924 3.0632 21.045 3.17572 21.1576C3.28825 21.2701 3.44086 21.3333 3.59999 21.3333H20.4C20.5591 21.3333 20.7117 21.2701 20.8243 21.1576C20.9368 21.045 21 20.8924 21 20.7333V3.9333C21 3.77417 20.9368 3.62156 20.8243 3.50904C20.7117 3.39651 20.5591 3.3333 20.4 3.3333ZM3.59999 2.1333C3.1226 2.1333 2.66476 2.32294 2.3272 2.66051C1.98963 2.99807 1.79999 3.45591 1.79999 3.9333V20.7333C1.79999 21.2107 1.98963 21.6685 2.3272 22.0061C2.66476 22.3437 3.1226 22.5333 3.59999 22.5333H20.4C20.8774 22.5333 21.3352 22.3437 21.6728 22.0061C22.0103 21.6685 22.2 21.2107 22.2 20.7333V3.9333C22.2 3.45591 22.0103 2.99807 21.6728 2.66051C21.3352 2.32294 20.8774 2.1333 20.4 2.1333H3.59999Z" fill="#A5A3AB"/>
</svg>
