<svg width="49" height="42" viewBox="0 0 49 42" fill="none" xmlns="http://www.w3.org/2000/svg">
<g clip-path="url(#clip0_1_111)">
<path d="M24.5228 41.9013C21.8766 41.9118 19.2303 41.9293 16.5841 41.9363C11.2882 41.9468 5.99573 41.9504 0.699781 41.9609C0.412377 41.705 0.52103 41.3615 0.52103 41.0566C0.517525 27.6853 0.524535 14.321 0.5 0.953198C0.5 0.147065 0.759365 -0.00715229 1.4989 -0.000142435C5.08094 0.0349069 8.66648 0.0243921 12.2485 0.00686742C12.7708 0.00686742 13.1843 0.13655 13.6014 0.462508C15.7359 2.12384 17.8985 3.74663 20.04 5.39745C20.5166 5.76546 20.9968 5.98628 21.6312 5.95824C22.5881 5.91267 23.5519 5.96174 24.5123 5.97226C24.5123 7.52844 24.5053 9.08814 24.5018 10.6478C21.6207 10.6618 18.7397 10.6899 15.8586 10.6724C15.2487 10.6689 15.0665 10.8476 15.07 11.4575C15.0875 18.8178 15.0875 26.1817 15.07 33.542C15.07 34.1694 15.2873 34.3236 15.8761 34.3201C18.3506 34.2921 20.8251 34.2956 23.2996 34.3201C23.7797 34.3236 24.1407 34.1764 24.4702 33.8645L24.5193 41.9013H24.5228Z" fill="#7781BF"/>
<path d="M24.5228 41.9015C24.5053 39.2237 24.4912 36.5424 24.4737 33.8647C24.4807 33.8191 24.4912 33.7735 24.5018 33.728C27.5335 30.7172 30.5618 27.703 33.6041 24.6993C33.8599 24.4469 33.9195 24.1735 33.9195 23.8406C33.9125 19.6802 33.9055 15.5199 33.9265 11.3595C33.9265 10.8022 33.7267 10.6795 33.2115 10.6831C30.3024 10.7076 27.3933 10.7041 24.4807 10.7111L24.5053 10.6515C24.5053 9.09182 24.5123 7.53563 24.5158 5.97593C32.4895 5.97243 40.4667 5.96542 48.4404 5.96191C48.4544 6.22478 48.486 6.48415 48.486 6.74702C48.486 18.1345 48.486 29.522 48.5 40.9096C48.5 41.5895 48.3458 41.94 47.5992 41.9365C39.9094 41.919 32.2161 41.912 24.5263 41.905L24.5228 41.9015ZM25.2308 37.3591C24.9714 37.7761 24.9364 38.2353 24.9188 38.7645C25.42 38.6243 25.8547 38.5017 26.2893 38.379C27.0218 38.3334 27.7263 38.1827 28.4027 37.8988C31.3995 35.0914 34.2735 32.1578 37.1405 29.2206C39.3942 27.4261 39.4222 27.2403 37.7083 25.7122C37.6873 25.6947 37.6558 25.6912 37.6277 25.6806C37.3754 25.4073 37.095 25.1549 36.8777 24.8535C36.5202 24.3628 36.2328 24.4434 35.8717 24.8535C35.4161 25.3687 34.8413 25.7753 34.4522 26.3536C33.4814 27.2999 32.4895 28.2322 31.5397 29.1996C29.5909 31.1764 27.544 33.0515 25.6899 35.1194C25.3885 35.8344 25.2203 36.574 25.2343 37.3521L25.2308 37.3591Z" fill="#6069B0"/>
<path d="M24.5018 33.7279C24.4912 33.7735 24.4807 33.819 24.4737 33.8646C24.1443 34.1765 23.7797 34.3237 23.3031 34.3202C20.8286 34.2957 18.3541 34.2922 15.8796 34.3202C15.2873 34.3272 15.07 34.1695 15.0735 33.5421C15.091 26.1818 15.091 18.8179 15.0735 11.4576C15.0735 10.8442 15.2522 10.669 15.8621 10.6725C18.7432 10.69 21.6242 10.662 24.5053 10.6479L24.4807 10.7075C24.4877 11.7941 24.4947 12.8771 24.5018 13.9636C22.7037 13.9706 20.9022 13.9776 19.1042 13.9846C17.3727 13.9917 17.555 13.8059 17.4954 15.5724C17.4709 16.3119 17.7653 16.4311 18.4067 16.4241C20.436 16.3995 22.4689 16.4311 24.5018 16.4416C24.5018 17.0655 24.5018 17.6929 24.5018 18.3167C22.6441 18.3272 20.7865 18.3308 18.9289 18.3518C17.3202 18.3693 17.5655 18.117 17.4989 19.7958C17.4709 20.5599 17.7267 20.8087 18.4908 20.7947C20.4921 20.7562 22.4969 20.7947 24.4983 20.8017C24.4983 21.4291 24.4983 22.0565 24.4983 22.6839C22.4689 22.6944 20.436 22.74 18.4102 22.6979C17.6671 22.6839 17.4078 22.9292 17.5094 23.6372C17.5305 23.7774 17.5305 23.9281 17.5094 24.0718C17.4078 24.7763 17.6671 25.0252 18.4102 25.0147C20.4395 24.9831 22.4654 25.0357 24.4947 25.0567C24.4947 25.7156 24.4947 26.3781 24.4947 27.037C22.4654 27.051 20.436 27.1001 18.4067 27.065C17.6636 27.051 17.4008 27.2964 17.5059 28.0044C17.5269 28.1446 17.5269 28.2953 17.5059 28.439C17.4008 29.147 17.6671 29.3888 18.4067 29.3783C20.436 29.3397 22.4654 29.3888 24.4947 29.4028C24.4947 30.8433 24.4947 32.2874 24.4947 33.7279H24.5018Z" fill="#FCFCFE"/>
<path d="M24.4983 27.037C24.4983 26.3781 24.4983 25.7156 24.4983 25.0567V24.9866C26.2998 24.9936 28.0978 25.0041 29.8958 25.0112C31.6027 25.0147 31.5852 25.0112 31.4906 23.3043C31.466 22.8346 31.2838 22.7189 30.8562 22.7224C28.7392 22.7435 26.6257 22.747 24.5088 22.7575L24.5018 22.6909C24.5018 22.0635 24.5018 21.4361 24.5018 20.8087C24.5123 20.7772 24.5193 20.7492 24.5263 20.7176C26.2963 20.7351 28.0628 20.7807 29.8328 20.7597C31.7429 20.7386 31.438 21.1733 31.4836 19.0388C31.4941 18.5831 31.3924 18.3483 30.8667 18.3553C28.7497 18.3868 26.6328 18.3868 24.5123 18.3974L24.5018 18.3273V16.4521L24.5158 16.375C26.2858 16.3855 28.0522 16.4276 29.8222 16.403C31.7429 16.3785 31.445 16.8201 31.4801 14.6926C31.4801 14.6331 31.4766 14.577 31.4801 14.5174C31.5081 14.1424 31.3223 14.0057 30.9613 14.0092C28.8163 14.0302 26.6713 14.0442 24.5263 14.0618C24.5193 14.0337 24.5123 14.0022 24.5053 13.9741C24.4982 12.8876 24.4912 11.8046 24.4842 10.7181C27.3933 10.711 30.3024 10.7181 33.215 10.69C33.7267 10.6865 33.93 10.8092 33.93 11.3665C33.909 15.5268 33.916 19.6872 33.923 23.8475C33.923 24.1805 33.8634 24.4539 33.6076 24.7062C30.5688 27.7099 27.537 30.7242 24.5053 33.7349C24.5053 32.2944 24.5053 30.8504 24.5053 29.4098L24.5123 29.3432C25.0065 29.3538 25.4972 29.3467 25.9914 29.3748C26.4154 29.3958 26.6012 29.2731 26.6292 28.8C26.7239 27.0791 26.7449 27.0791 25.0345 27.0931C24.8593 27.0931 24.6875 27.1106 24.5123 27.1211L24.5053 27.0475L24.4983 27.037Z" fill="#E6E9F2"/>
<path d="M25.6864 35.1264C27.5405 33.0585 29.5909 31.1834 31.5361 29.2066C32.4895 28.2392 33.4779 27.3069 34.4487 26.3606C34.9219 26.7777 35.3916 27.1948 35.8647 27.6083C35.8647 27.6679 35.8647 27.724 35.8647 27.7836C35.36 28.2603 34.8378 28.7229 34.3506 29.2136C31.9357 31.6425 29.5313 34.082 27.1234 36.5144C27.0709 36.5074 27.0183 36.5004 26.9657 36.4898C26.5381 36.0342 26.1105 35.5786 25.6829 35.1229L25.6864 35.1264Z" fill="#FECE0E"/>
<path d="M27.1269 36.5178C29.5348 34.0819 31.9427 31.646 34.3541 29.2171C34.8448 28.7229 35.3635 28.2637 35.8682 27.787C36.3659 28.2006 36.9232 28.5651 37.1405 29.2276C34.2735 32.1647 31.3995 35.0948 28.4027 37.9058C27.9786 37.4431 27.551 36.984 27.1269 36.5213V36.5178Z" fill="#FDBA1A"/>
<path d="M37.144 29.2241C36.9267 28.5617 36.3694 28.2007 35.8717 27.7836C35.8717 27.724 35.8717 27.6679 35.8717 27.6083C36.5166 27.0195 37.2702 26.5288 37.6347 25.6841C37.6628 25.6947 37.6943 25.6982 37.7153 25.7157C39.4328 27.2438 39.4012 27.4296 37.1475 29.2241H37.144Z" fill="#F39425"/>
<path d="M37.6312 25.6841C37.2667 26.5323 36.5167 27.023 35.8682 27.6083C35.3951 27.1912 34.9254 26.7741 34.4522 26.3605C34.8413 25.7787 35.4161 25.3757 35.8717 24.8604C36.2327 24.4504 36.5237 24.3697 36.8777 24.8604C37.095 25.1584 37.3754 25.4142 37.6277 25.6876L37.6312 25.6841Z" fill="#F9AA1D"/>
<path d="M27.1269 36.5178C27.551 36.9805 27.9786 37.4396 28.4027 37.9023C27.7263 38.1862 27.0183 38.3369 26.2893 38.3824C26.1035 38.1721 25.9177 37.9618 25.7355 37.748C26.2157 37.3941 26.6433 36.9945 26.9692 36.4933C27.0218 36.5038 27.0744 36.5108 27.1269 36.5178Z" fill="#E6E9F2"/>
<path d="M26.9692 36.4933C26.6398 36.9945 26.2122 37.3941 25.7355 37.7481C25.5673 37.6184 25.399 37.4887 25.2308 37.359C25.2168 36.5809 25.385 35.8414 25.6864 35.1264C26.114 35.582 26.5416 36.0377 26.9692 36.4933Z" fill="#F7FAFC"/>
<path d="M25.2308 37.359C25.399 37.4887 25.5673 37.6184 25.7355 37.7481C25.9212 37.9584 26.107 38.1722 26.2893 38.3824C25.8547 38.5051 25.42 38.6243 24.9188 38.7645C24.9364 38.2387 24.9714 37.7761 25.2308 37.359Z" fill="#363C46"/>
<path d="M24.5018 16.4416C22.4689 16.4311 20.4395 16.3995 18.4067 16.4241C17.7653 16.4311 17.4709 16.3154 17.4954 15.5724C17.555 13.8024 17.3727 13.9917 19.1042 13.9847C20.9022 13.9776 22.7037 13.9706 24.5018 13.9636C24.5088 13.9917 24.5158 14.0232 24.5228 14.0512C24.5228 14.8223 24.5193 15.5934 24.5158 16.3645L24.5018 16.4416Z" fill="#C0C4D3"/>
<path d="M24.5018 20.8018C22.5004 20.7948 20.4956 20.7562 18.4943 20.7948C17.7302 20.8088 17.4709 20.5634 17.5024 19.7959C17.569 18.1135 17.3237 18.3693 18.9324 18.3518C20.79 18.3308 22.6476 18.3273 24.5053 18.3168L24.5158 18.3869C24.5193 19.1615 24.5263 19.9361 24.5298 20.7071C24.5228 20.7387 24.5158 20.7667 24.5053 20.7983L24.5018 20.8018Z" fill="#C0C4D3"/>
<path d="M24.4982 25.0533C22.4689 25.0322 20.4395 24.9797 18.4137 25.0112C17.6706 25.0217 17.4113 24.7764 17.5129 24.0684C17.534 23.9247 17.534 23.7775 17.5129 23.6338C17.4078 22.9258 17.6706 22.6804 18.4137 22.6944C20.443 22.733 22.4724 22.6909 24.5018 22.6804L24.5088 22.747C24.5088 23.4901 24.5053 24.2366 24.5018 24.9797V25.0498L24.4982 25.0533Z" fill="#C0C4D2"/>
<path d="M24.5018 29.3993C22.4724 29.3853 20.443 29.3362 18.4137 29.3748C17.6741 29.3888 17.4078 29.1435 17.5129 28.4355C17.534 28.2953 17.534 28.1446 17.5129 28.0009C17.4078 27.2929 17.6706 27.0475 18.4137 27.0615C20.443 27.0966 22.4724 27.0475 24.5018 27.0335L24.5088 27.1071C24.5088 27.8502 24.5088 28.5897 24.5088 29.3327L24.5018 29.3993Z" fill="#C0C4D2"/>
<path d="M24.5158 16.3645C24.5158 15.5934 24.5193 14.8224 24.5228 14.0513C26.6678 14.0373 28.8128 14.0232 30.9578 14.0022C31.3223 13.9987 31.5046 14.1354 31.4766 14.5104C31.4731 14.5665 31.4766 14.6261 31.4766 14.6857C31.445 16.8132 31.7394 16.3715 29.8187 16.3961C28.0522 16.4206 26.2823 16.3785 24.5123 16.368L24.5158 16.3645Z" fill="#9398AA"/>
<path d="M24.5263 20.7071C24.5228 19.9326 24.5158 19.158 24.5123 18.3869C26.6292 18.3764 28.7462 18.3799 30.8667 18.3448C31.3959 18.3378 31.4941 18.5726 31.4836 19.0283C31.438 21.1663 31.7429 20.7282 29.8327 20.7492C28.0663 20.7702 26.2963 20.7247 24.5263 20.7071Z" fill="#9398AA"/>
<path d="M24.5018 24.9831C24.5018 24.2401 24.5053 23.4935 24.5088 22.7505C26.6257 22.74 28.7392 22.74 30.8562 22.7189C31.2838 22.7154 31.4625 22.8311 31.4906 23.3008C31.5852 25.0112 31.6027 25.0112 29.8958 25.0077C28.0978 25.0042 26.3033 24.9936 24.5053 24.9831H24.5018Z" fill="#9398AA"/>
<path d="M24.5053 29.3327C24.5053 28.5897 24.5053 27.8502 24.5053 27.1071C24.6805 27.0966 24.8522 27.0826 25.0275 27.0791C26.7379 27.065 26.7169 27.065 26.6222 28.786C26.5942 29.2591 26.4084 29.3853 25.9843 29.3608C25.4936 29.3327 24.9995 29.3397 24.5053 29.3292V29.3327Z" fill="#9398AA"/>
</g>
<defs>
<clipPath id="clip0_1_111">
<rect width="48" height="41.9575" fill="white" transform="translate(0.5)"/>
</clipPath>
</defs>
</svg>
